<svg xmlns="http://www.w3.org/2000/svg" xmlns:xlink="http://www.w3.org/1999/xlink" version="1.1" width="150" height="150" viewBox="100 15 300 500" xml:space="preserve">
<desc>Created with Fabric.js 5.3.0</desc>
    <defs>
</defs>
    <g transform="matrix(19.3308094506 0 0 19.3308094506 250 250)" id="j-gzpV9gUqUqDkDLWmqtr"  >
<path style="stroke: rgb(0,0,0); stroke-width: 1; stroke-dasharray: none; stroke-linecap: round; stroke-dashoffset: 0; stroke-linejoin: round; stroke-miterlimit: 4; fill: none; fill-rule: nonzero; opacity: 1;"  transform=" translate(0, 0)" d="M -4 -6.99995 C -4.98835 -6.99918 -5.50641 -6.98662 -5.90798 -6.7820100000000005 C -6.2843100000000005 -6.59027 -6.59027 -6.2843100000000005 -6.7820100000000005 -5.90798 C -7.000000000000001 -5.480160000000001 -7.000000000000001 -4.92011 -7.000000000000001 -3.8000000000000003 L -7.000000000000001 5.799999999999999 C -7.000000000000001 6.920099999999999 -7.000000000000001 7.480199999999999 -6.7820100000000005 7.9079999999999995 C -6.59027 8.2843 -6.2843100000000005 8.5903 -5.90798 8.782 C -5.480160000000001 9 -4.92011 9 -3.8000000000000003 9 L 3.7999999999999994 9 C 4.9201 9 5.480199999999999 9 5.9079999999999995 8.782 C 6.284299999999999 8.5903 6.590299999999999 8.2843 6.781999999999999 7.908 C 6.999999999999999 7.4802 6.999999999999999 6.920100000000001 6.999999999999999 5.800000000000001 L 6.999999999999999 -3.799999999999999 C 6.999999999999999 -4.920109999999999 6.999999999999999 -5.480159999999999 6.781999999999999 -5.9079799999999985 C 6.590299999999999 -6.284309999999999 6.284299999999999 -6.5902699999999985 5.9079999999999995 -6.782009999999999 C 5.506399999999999 -6.9866199999999985 4.9883999999999995 -6.999179999999999 3.9999999999999996 -6.999949999999998 M -4 -6.99995 L -4 -5 L 4 -5 L 4 -6.99995 M -4 -6.99995 L -4 -7.29289 C -4 -7.7456499999999995 -3.82014 -8.17986 -3.5 -8.5 C -3.17986 -8.82014 -2.74565 -9 -2.29289 -9 L 2.2929000000000004 -9 C 2.7456000000000005 -9 3.1799000000000004 -8.82014 3.5000000000000004 -8.5 C 3.8201000000000005 -8.17986 4 -7.74565 4 -7.29289 L 4 -6.99995" stroke-linecap="round" />
</g>
    <g transform="matrix(1 0 0 1 190 350)" style="" id="-yjWzSs3quzARM1q9GmBW">
		<text font-family="Roboto Mono" font-size="200px" font-style="normal" font-weight="700" style="font-family:'Roboto Mono',monospace; stroke: none; stroke-width: 1; stroke-dasharray: none; stroke-linecap: butt; stroke-dashoffset: 0; stroke-linejoin: miter; stroke-miterlimit: 4; fill: rgb(0,0,0); fill-rule: nonzero; opacity: 1; white-space: pre;">S</text>
      </g></svg>