<?xml version="1.0" standalone="no"?>
<!DOCTYPE svg PUBLIC "-//W3C//DTD SVG 20010904//EN"
 "http://www.w3.org/TR/2001/REC-SVG-20010904/DTD/svg10.dtd">
<svg version="1.0" xmlns="http://www.w3.org/2000/svg"
 width="700.000000pt" height="700.000000pt" viewBox="0 0 700.000000 700.000000"
 preserveAspectRatio="xMidYMid meet">
<metadata>
Created by potrace 1.14, written by Peter Selinger 2001-2017
</metadata>
<g transform="translate(0.000000,700.000000) scale(0.100000,-0.100000)"
fill="#000000" stroke="none">
<path d="M2900 6279 c-186 -8 -288 -43 -405 -140 -97 -81 -174 -207 -198 -327
-7 -34 -15 -63 -18 -66 -3 -3 -50 -8 -104 -11 -117 -6 -145 -10 -205 -24 -25
-7 -52 -13 -61 -15 -34 -8 -116 -55 -174 -99 -147 -112 -231 -264 -254 -462
-6 -47 -9 -773 -7 -1745 2 -1870 -4 -1727 78 -1890 72 -142 221 -273 363 -317
45 -15 76 -21 155 -33 67 -10 2865 -7 2900 3 14 4 37 9 53 12 103 19 224 89
314 181 103 106 166 240 181 388 10 97 9 3359 -1 3421 -29 178 -83 285 -203
400 -95 91 -208 146 -351 170 -18 3 -81 7 -140 10 -58 3 -108 6 -109 8 -1 1
-4 20 -7 42 -5 43 -30 122 -54 170 -26 52 -104 149 -149 185 -111 90 -218 130
-364 137 -142 7 -1097 9 -1240 2z m1363 -303 c81 -40 152 -126 174 -209 11
-40 12 -556 2 -563 -7 -4 -1516 -8 -1851 -4 l-37 0 2 278 3 277 28 63 c35 76
104 142 179 171 50 19 74 20 747 18 l695 -2 58 -29z m-1981 -696 c-1 -102 1
-206 4 -231 6 -47 31 -87 71 -107 16 -9 317 -12 1143 -12 1231 0 1148 -5 1195
58 18 25 20 44 22 242 1 118 2 220 2 227 1 17 175 8 256 -12 125 -32 222 -129
262 -260 17 -57 18 -142 18 -1710 0 -907 -2 -1672 -4 -1700 -13 -136 -80 -242
-197 -311 -92 -54 -74 -54 -1579 -51 -765 2 -1406 7 -1425 11 -98 22 -203 100
-253 188 -54 94 -52 22 -52 1828 0 1578 1 1679 18 1740 20 71 46 117 98 169
87 85 185 117 358 116 l63 0 0 -185z"/>
<path d="M3340 4375 c-139 -24 -237 -69 -329 -151 -41 -37 -111 -124 -111
-138 0 -2 -8 -21 -17 -42 -9 -22 -17 -41 -18 -44 -26 -105 -35 -249 -20 -320
14 -72 20 -89 42 -139 64 -139 204 -233 542 -363 86 -32 174 -70 197 -83 205
-120 184 -408 -35 -471 -182 -54 -453 12 -683 166 -32 21 -59 33 -59 27 -7
-63 -2 -400 6 -406 52 -38 264 -105 400 -126 88 -14 342 -14 410 0 199 40 321
106 404 219 75 103 111 242 106 405 -6 169 -52 286 -154 392 -85 87 -176 143
-314 195 -50 19 -202 78 -272 106 -144 57 -209 135 -201 240 6 69 23 105 71
146 48 43 130 65 235 64 47 -1 94 -3 105 -6 94 -21 121 -28 172 -47 60 -23
168 -78 216 -111 20 -14 27 -16 28 -6 1 15 1 347 0 365 -1 17 -38 34 -146 71
-176 60 -413 84 -575 57z"/>
</g>
</svg>
